<mxfile host="app.diagrams.net" agent="Mozilla/5.0 (Macintosh; Intel Mac OS X 10_15_7) AppleWebKit/537.36 (KHTML, like Gecko) Chrome/137.0.0.0 Safari/537.36" version="27.1.5">
  <diagram name="페이지-1" id="bKYwieBg9dlsIIrljAC0">
    <mxGraphModel dx="1143" dy="553" grid="1" gridSize="10" guides="1" tooltips="1" connect="1" arrows="1" fold="1" page="1" pageScale="1" pageWidth="827" pageHeight="1169" math="0" shadow="0">
      <root>
        <mxCell id="0" />
        <mxCell id="1" parent="0" />
        <mxCell id="3nhZWUzx5EvnYL2PSpFi-7" value="" style="edgeStyle=orthogonalEdgeStyle;rounded=0;orthogonalLoop=1;jettySize=auto;html=1;" parent="1" source="3nhZWUzx5EvnYL2PSpFi-1" target="3nhZWUzx5EvnYL2PSpFi-4" edge="1">
          <mxGeometry relative="1" as="geometry" />
        </mxCell>
        <mxCell id="3nhZWUzx5EvnYL2PSpFi-1" value="IOC 컨테이너" style="ellipse;whiteSpace=wrap;html=1;" parent="1" vertex="1">
          <mxGeometry x="160" y="160" width="120" height="80" as="geometry" />
        </mxCell>
        <mxCell id="3nhZWUzx5EvnYL2PSpFi-3" value="" style="edgeStyle=orthogonalEdgeStyle;rounded=0;orthogonalLoop=1;jettySize=auto;html=1;" parent="1" source="3nhZWUzx5EvnYL2PSpFi-2" target="3nhZWUzx5EvnYL2PSpFi-1" edge="1">
          <mxGeometry relative="1" as="geometry" />
        </mxCell>
        <mxCell id="3nhZWUzx5EvnYL2PSpFi-2" value="객체" style="rounded=0;whiteSpace=wrap;html=1;" parent="1" vertex="1">
          <mxGeometry x="180" y="80" width="80" height="40" as="geometry" />
        </mxCell>
        <mxCell id="3nhZWUzx5EvnYL2PSpFi-4" value="사용자" style="shape=umlActor;verticalLabelPosition=bottom;verticalAlign=top;html=1;outlineConnect=0;" parent="1" vertex="1">
          <mxGeometry x="370" y="175" width="20" height="50" as="geometry" />
        </mxCell>
        <mxCell id="V_C6_iJeV9ZZTWs0v1Yz-1" value="JAVA&lt;br&gt;애플리케이션" style="rounded=0;whiteSpace=wrap;html=1;" parent="1" vertex="1">
          <mxGeometry x="40" y="360" width="160" height="120" as="geometry" />
        </mxCell>
        <mxCell id="V_C6_iJeV9ZZTWs0v1Yz-2" value="JPA" style="rounded=0;whiteSpace=wrap;html=1;" parent="1" vertex="1">
          <mxGeometry x="170" y="370" width="60" height="100" as="geometry" />
        </mxCell>
        <mxCell id="V_C6_iJeV9ZZTWs0v1Yz-5" value="" style="edgeStyle=orthogonalEdgeStyle;rounded=0;orthogonalLoop=1;jettySize=auto;html=1;" parent="1" source="V_C6_iJeV9ZZTWs0v1Yz-3" target="V_C6_iJeV9ZZTWs0v1Yz-4" edge="1">
          <mxGeometry relative="1" as="geometry">
            <Array as="points">
              <mxPoint x="320" y="410" />
              <mxPoint x="320" y="410" />
            </Array>
          </mxGeometry>
        </mxCell>
        <mxCell id="V_C6_iJeV9ZZTWs0v1Yz-3" value="JDBC&lt;br&gt;API" style="rounded=0;whiteSpace=wrap;html=1;" parent="1" vertex="1">
          <mxGeometry x="220" y="380" width="40" height="80" as="geometry" />
        </mxCell>
        <mxCell id="V_C6_iJeV9ZZTWs0v1Yz-7" value="" style="edgeStyle=orthogonalEdgeStyle;rounded=0;orthogonalLoop=1;jettySize=auto;html=1;" parent="1" source="V_C6_iJeV9ZZTWs0v1Yz-4" target="V_C6_iJeV9ZZTWs0v1Yz-3" edge="1">
          <mxGeometry relative="1" as="geometry" />
        </mxCell>
        <mxCell id="V_C6_iJeV9ZZTWs0v1Yz-4" value="DB" style="shape=cylinder3;whiteSpace=wrap;html=1;boundedLbl=1;backgroundOutline=1;size=15;" parent="1" vertex="1">
          <mxGeometry x="350" y="380" width="60" height="80" as="geometry" />
        </mxCell>
        <mxCell id="V_C6_iJeV9ZZTWs0v1Yz-8" value="쿼리수행" style="text;html=1;align=center;verticalAlign=middle;whiteSpace=wrap;rounded=0;" parent="1" vertex="1">
          <mxGeometry x="270" y="380" width="60" height="30" as="geometry" />
        </mxCell>
        <mxCell id="V_C6_iJeV9ZZTWs0v1Yz-9" value="결과" style="text;html=1;align=center;verticalAlign=middle;whiteSpace=wrap;rounded=0;" parent="1" vertex="1">
          <mxGeometry x="270" y="420" width="60" height="30" as="geometry" />
        </mxCell>
        <mxCell id="7xCpqGRxqtHJdh_AqXy3-1" value="" style="rounded=0;whiteSpace=wrap;html=1;" vertex="1" parent="1">
          <mxGeometry x="249" y="660" width="441" height="130" as="geometry" />
        </mxCell>
        <mxCell id="7xCpqGRxqtHJdh_AqXy3-10" value="" style="edgeStyle=orthogonalEdgeStyle;rounded=0;orthogonalLoop=1;jettySize=auto;html=1;entryX=0;entryY=0.5;entryDx=0;entryDy=0;entryPerimeter=0;exitX=1;exitY=0.5;exitDx=0;exitDy=0;" edge="1" parent="1">
          <mxGeometry relative="1" as="geometry">
            <mxPoint x="374" y="735" as="sourcePoint" />
            <mxPoint x="740" y="735" as="targetPoint" />
          </mxGeometry>
        </mxCell>
        <mxCell id="7xCpqGRxqtHJdh_AqXy3-2" value="영속성 컨텍스트(EntityManager)" style="text;html=1;align=center;verticalAlign=middle;resizable=0;points=[];autosize=1;strokeColor=none;fillColor=none;" vertex="1" parent="1">
          <mxGeometry x="234" y="630" width="180" height="30" as="geometry" />
        </mxCell>
        <mxCell id="7xCpqGRxqtHJdh_AqXy3-4" value="1차캐시" style="ellipse;whiteSpace=wrap;html=1;" vertex="1" parent="1">
          <mxGeometry x="284" y="697.5" width="90" height="55" as="geometry" />
        </mxCell>
        <mxCell id="7xCpqGRxqtHJdh_AqXy3-5" value="" style="endArrow=classic;html=1;rounded=0;entryX=0;entryY=0.5;entryDx=0;entryDy=0;" edge="1" parent="1" target="7xCpqGRxqtHJdh_AqXy3-4">
          <mxGeometry width="50" height="50" relative="1" as="geometry">
            <mxPoint x="150" y="725" as="sourcePoint" />
            <mxPoint x="200" y="690" as="targetPoint" />
          </mxGeometry>
        </mxCell>
        <mxCell id="7xCpqGRxqtHJdh_AqXy3-6" value="1. 엔티티를 가져옴" style="text;html=1;align=center;verticalAlign=middle;resizable=0;points=[];autosize=1;strokeColor=none;fillColor=none;" vertex="1" parent="1">
          <mxGeometry x="139" y="730" width="110" height="30" as="geometry" />
        </mxCell>
        <mxCell id="7xCpqGRxqtHJdh_AqXy3-13" value="" style="edgeStyle=orthogonalEdgeStyle;rounded=0;orthogonalLoop=1;jettySize=auto;html=1;entryX=1;entryY=0.5;entryDx=0;entryDy=0;" edge="1" parent="1" source="7xCpqGRxqtHJdh_AqXy3-7" target="7xCpqGRxqtHJdh_AqXy3-4">
          <mxGeometry relative="1" as="geometry">
            <mxPoint x="660" y="725" as="targetPoint" />
          </mxGeometry>
        </mxCell>
        <mxCell id="7xCpqGRxqtHJdh_AqXy3-7" value="DB" style="shape=cylinder3;whiteSpace=wrap;html=1;boundedLbl=1;backgroundOutline=1;size=15;" vertex="1" parent="1">
          <mxGeometry x="740" y="685" width="60" height="80" as="geometry" />
        </mxCell>
        <mxCell id="7xCpqGRxqtHJdh_AqXy3-8" value="2. entityManager에 entity 존재하는 지 확인 이후 없으면 DB조회&amp;nbsp;" style="text;html=1;align=center;verticalAlign=middle;resizable=0;points=[];autosize=1;strokeColor=none;fillColor=none;" vertex="1" parent="1">
          <mxGeometry x="270" y="752.5" width="340" height="30" as="geometry" />
        </mxCell>
        <mxCell id="7xCpqGRxqtHJdh_AqXy3-15" value="3. 해당 객체를 변경하는 경우, Transactional 이 종료 될 때 DB에 적용&lt;br&gt;(update 쿼리를 만들어서 DB에 수행)" style="text;html=1;align=center;verticalAlign=middle;resizable=0;points=[];autosize=1;strokeColor=none;fillColor=none;" vertex="1" parent="1">
          <mxGeometry x="330" y="662.5" width="360" height="40" as="geometry" />
        </mxCell>
        <mxCell id="7xCpqGRxqtHJdh_AqXy3-16" value="" style="edgeStyle=orthogonalEdgeStyle;rounded=0;orthogonalLoop=1;jettySize=auto;html=1;entryX=0;entryY=0;entryDx=0;entryDy=15;entryPerimeter=0;exitX=1;exitY=0.5;exitDx=0;exitDy=0;" edge="1" parent="1">
          <mxGeometry relative="1" as="geometry">
            <mxPoint x="360" y="705" as="sourcePoint" />
            <mxPoint x="740" y="702.5" as="targetPoint" />
            <Array as="points">
              <mxPoint x="360" y="702.5" />
            </Array>
          </mxGeometry>
        </mxCell>
      </root>
    </mxGraphModel>
  </diagram>
</mxfile>
